<?xml version="1.0"?>
<svg xmlns="http://www.w3.org/2000/svg" id="Capa_1" enable-background="new 0 0 448.941 448.941" height="512px" viewBox="0 0 448.941 448.941" width="512px"><g><path d="m392.824 285.759v-89.347h-140.295v-33.229c32.59-11.62 56.118-42.475 56.118-79.006 0-46.418-37.759-84.177-84.176-84.177s-84.176 37.759-84.176 84.176c0 36.531 23.527 67.385 56.118 79.004v33.231h-140.295v89.347c-32.591 11.62-56.118 42.476-56.118 79.007 0 46.418 37.759 84.176 84.176 84.176s84.176-37.759 84.176-84.176c0-36.531-23.527-67.386-56.118-79.006v-33.229h224.471v33.229c-32.59 11.62-56.118 42.475-56.118 79.006 0 46.418 37.759 84.176 84.176 84.176s84.176-37.759 84.176-84.176c.002-36.531-23.525-67.387-56.115-79.006z" data-original="#000000" class="active-path" data-old_color="#000000" fill="#28689F"/></g> </svg>
